:SAMPLES-PER-SECOND 30
:FULLY-SPECIFIED
:DEGREES
147
root  34.80370589 36.5486145 -14.27944964 9.882025719 -3.073339939 4.856987953
lowerback  -7.488410473 -0.1777293086 -0.6657681465
upperback  -4.147550106 0.3937399983 -4.904439926
thorax  -0.05937489867 0.3981489837 -4.677780151
lowerneck  -4.034110069 -16.39369965 -10.68640041
upperneck  7.398489952 -22.37900162 11.90970039
head  5.415919781 -10.72340012 3.53057003
lclavicle  0 -4.497500157e-015 -2.743230041e-014
lhumerus  -47.67290115 30.08769989 60.70460129
lradius  0.00999462232 -6.507048965e-006 28.92149925
lwrist  4.824992743e-007 -3.790274832e-007 -30.82979965
lhand  -4.421075406e-031 -36.99359894 -10.73900032
lfingers  90 7.125020027 -90
lthumb  94.87364258 -25.57032378 101.1749705
rclavicle  0 -4.497500157e-015 -2.743230041e-014
rhumerus  36.88560104 -46.58890152 -34.94950104
rradius  -5.16745672e-007 2.214343908e-008 45.73469925
rwrist  -2.867388866e-005 0.08030121773 -163.1990051
rhand  -1.773272061e-031 5.344679832 -6.189730167
rfingers  -90 -7.125020027 -90
rthumb  -84.14803469 -9.744171156 -58.80205063
rfemur  -11.93054771 14.34172916 11.84324265
rtibia  -1.310992837 -1.886587024 19.75240135
rfoot  0.7482460141 -22.01168633 -35.75874329
rtoes  4.002570987 19.61148178 -101.7759506
lfemur  -3.735415459 -17.58447456 -23.85428429
ltibia  7.224637508 -0.8731538653 6.609871387
lfoot  0.7651818395 -20.53164101 36.21950912
ltoes  -8.621687307 -18.11529044 -115.9958678
148
root  34.80754462 36.54894791 -14.28422252 9.898280144 -3.024478436 4.866573334
lowerback  -7.48663044 -0.1763730496 -0.6541650295
upperback  -4.139279842 0.4023309946 -4.92730999
thorax  -0.05104809999 0.4000790119 -4.70773983
lowerneck  -4.025090218 -16.40270042 -10.69040012
upperneck  7.43321991 -22.3934021 11.8906002
head  5.424233437 -10.73102379 3.522526264
lclavicle  0 -4.497500157e-015 -2.743230041e-014
lhumerus  -47.64030075 30.07099915 60.67010117
lradius  0.01020761114 -6.507048965e-006 28.89729881
lwrist  4.824992743e-007 -3.790274832e-007 -30.83459854
lhand  -0 -36.94309998 -10.68309975
lfingers  90 7.125020027 -90
lthumb  94.83800898 -25.51723726 101.1159128
rclavicle  0 -4.497500157e-015 -2.743230041e-014
rhumerus  36.97370529 -46.57849884 -34.69010544
rradius  -5.16745672e-007 2.214343908e-008 45.04370117
rwrist  -2.867388866e-005 0.07970190048 -162.9649963
rhand  -1.77228767e-031 4.99296999 -6.562530041
rfingers  -90 -7.125020027 -90
rthumb  -84.43170458 -9.404539094 -59.17832201
rfemur  -12.00751972 14.41587257 11.84930038
rtibia  -1.342962742 -1.806601644 19.85588646
rfoot  0.7219148874 -21.83926582 -35.81505585
rtoes  3.999514057 19.61208186 -101.766843
lfemur  -3.774825096 -17.67002869 -23.85726738
ltibia  7.214626312 -0.9121552706 6.644073009
lfoot  0.7403460145 -20.4377861 36.1828537
ltoes  -8.641864051 -18.10592539 -116.0607756
149
root  34.80997161 36.54819999 -14.28967423 9.896180153 -2.976821184 4.874571323
lowerback  -7.514560223 -0.1736380309 -0.6473023295
upperback  -4.135900021 0.4090499878 -4.945690155
thorax  -0.03151860088 0.4042769969 -4.730420113
lowerneck  -4.010069847 -16.40469933 -10.72369957
upperneck  7.457950115 -22.39920044 11.90229988
head  5.430109024 -10.73409462 3.523654461
lclavicle  0 -4.497500157e-015 -2.743230041e-014
lhumerus  -47.6352005 30.06979942 60.61800003
lradius  0.01041922905 -6.507048965e-006 28.87939835
lwrist  4.824992743e-007 -3.790274832e-007 -30.8701992
lhand  -4.418381259e-031 -36.94720078 -10.64820004
lfingers  90 7.125020027 -90
lthumb  94.83244991 -25.48285924 101.1170268
rclavicle  0 -4.497500157e-015 -2.743230041e-014
rhumerus  37.08069611 -46.63249969 -34.47299576
rradius  -5.16745672e-007 2.214343908e-008 44.39020157
rwrist  -2.867388866e-005 0.07910146564 -163.2149963
rhand  -1.773186655e-031 5.315100193 -6.676799774
rfingers  -90 -7.125020027 -90
rthumb  -84.41111477 -9.325634523 -58.87330211
rfemur  -12.01441383 14.40547657 11.85806274
rtibia  -1.359182119 -1.803907871 19.89218712
rfoot  0.7089337707 -21.83525085 -35.82481766
rtoes  3.99450198 19.6130647 -101.7519109
lfemur  -3.858160257 -17.72687721 -23.83512497
ltibia  7.15342474 -0.9353003502 6.791069984
lfoot  0.7353073359 -20.43995476 36.14202881
ltoes  -8.633038116 -18.11002533 -116.0323789
150
root  34.81322762 36.54765031 -14.29316753 9.888973236 -2.933858633 4.905435085
lowerback  -7.506919861 -0.137536943 -0.5572147965
upperback  -4.135276318 0.4552209973 -5.002960205
thorax  -0.03257460147 0.4269579947 -4.838600159
lowerneck  -3.998539925 -16.44009972 -10.69219971
upperneck  7.501140118 -22.45200157 11.87759972
head  5.448533535 -10.75854206 3.513849258
lclavicle  0 -4.497500157e-015 -2.743230041e-014
lhumerus  -47.59220123 30.04660034 60.54499817
lradius  0.01062893216 -6.507048965e-006 28.88129807
lwrist  4.824992743e-007 -3.790274832e-007 -30.98920059
lhand  -4.419437315e-031 -36.9654007 -10.70269966
lfingers  90 7.125020027 -90
lthumb  94.85264533 -25.53563328 101.1415517
rclavicle  0 -4.497500157e-015 -2.743230041e-014
rhumerus  37.01399612 -46.68320084 -34.12630081
rradius  -5.16745672e-007 2.214343908e-008 43.82220078
rwrist  -2.867388866e-005 0.07849997282 -163.279007
rhand  -1.773674342e-031 5.48183012 -6.743000031
rfingers  -90 -7.125020027 -90
rthumb  -84.40421718 -9.279186068 -58.71612387
rfemur  -12.0376482 14.43964863 11.8361578
rtibia  -1.388158321 -1.812220216 19.94276047
rfoot  0.6664729714 -21.8275795 -35.91439056
rtoes  3.993684289 19.61322492 -101.7494749
lfemur  -3.868026018 -17.78103256 -23.86523628
ltibia  7.151098728 -0.9492191076 6.792131901
lfoot  0.7313462496 -20.41727829 36.13144684
ltoes  -8.638437674 -18.10751767 -116.0497508
151
root  34.81603908 36.54710364 -14.29717297 9.884796143 -2.900732994 4.914399624
lowerback  -7.508559704 -0.1292489618 -0.5546246767
upperback  -4.136034966 0.4679810107 -5.017879963
thorax  -0.03240000084 0.4338980019 -4.854849815
lowerneck  -4.016540051 -16.45299911 -10.69579983
upperneck  7.562699795 -22.47089767 11.84490013
head  5.467319965 -10.76710033 3.496900082
lclavicle  0 -4.497500157e-015 -2.743230041e-014
lhumerus  -47.57600021 30.04669952 60.51839828
lradius  0.01083617564 -6.507048965e-006 28.84880257
lwrist  4.824992743e-007 -3.790274832e-007 -31.01640129
lhand  -0 -37.3423996 -10.82909966
lfingers  90 7.125020027 -90
lthumb  95.05768548 -25.64579509 101.5569128
rclavicle  0 -4.497500157e-015 -2.743230041e-014
rhumerus  37.17860031 -46.84129715 -34.08879852
rradius  -5.16745672e-007 2.214343908e-008 43.1882019
rwrist  -2.867388866e-005 0.07789743692 -163.3659973
rhand  -1.773899217e-031 5.55700016 -6.874619961
rfingers  -90 -7.125020027 -90
rthumb  -84.45481231 -9.1713312 -58.65379565
rfemur  -12.02669716 14.45481205 11.82801056
rtibia  -1.400800347 -1.82199347 19.92867661
rfoot  0.6643424034 -21.81178856 -35.96344376
rtoes  3.990627032 19.61382367 -101.7403671
lfemur  -4.058876038 -17.74507332 -23.79382324
ltibia  7.015091896 -0.8386086226 7.084699631
lfoot  0.8052427769 -20.81412506 36.16590881
ltoes  -8.618808588 -18.11662437 -115.9866097
